<?xml version="1.0" standalone="no"?>
<!DOCTYPE svg PUBLIC "-//W3C//DTD SVG 20010904//EN"
 "http://www.w3.org/TR/2001/REC-SVG-20010904/DTD/svg10.dtd">
<svg version="1.0" xmlns="http://www.w3.org/2000/svg"
 width="687.000000pt" height="686.000000pt" viewBox="0 0 687.000000 686.000000"
 preserveAspectRatio="xMidYMid meet">
<metadata>
Created by potrace 1.15, written by Peter Selinger 2001-2017
</metadata>
<g transform="translate(0.000000,686.000000) scale(0.100000,-0.100000)"
fill="#000000" stroke="none">
<path d="M116 6846 c3 -8 2 -16 -3 -19 -4 -3 -7 -49 -7 -102 2 -115 13 -137
90 -174 104 -51 141 -60 274 -63 l115 -3 65 37 c36 20 73 45 81 55 26 29 40
63 33 75 -5 7 -9 31 -10 53 -5 75 -13 135 -19 145 -4 6 -115 10 -315 10 -261
0 -309 -2 -304 -14z"/>
<path d="M4345 6849 c82 -19 171 -24 278 -17 31 2 57 1 57 -3 0 -4 12 -9 26
-12 18 -3 24 -1 20 9 -3 8 0 11 10 7 7 -3 14 -10 15 -17 1 -6 5 0 9 14 6 18 8
20 9 7 1 -10 6 -15 11 -12 6 3 10 0 11 -7 0 -7 4 -4 9 7 8 19 9 19 9 1 1 -14
7 -17 26 -14 14 3 25 2 25 -2 0 -4 15 -10 33 -14 46 -9 147 -57 147 -70 0 -6
5 -4 10 4 8 13 10 12 10 -2 0 -14 8 -18 33 -18 60 0 97 -5 97 -12 0 -4 18 -7
40 -5 28 1 40 7 40 17 0 10 3 11 8 4 8 -14 74 -6 66 7 -3 6 45 8 115 7 67 -2
121 0 121 4 0 4 9 10 21 13 19 6 58 74 59 103 0 9 -141 12 -677 11 -428 -1
-663 -5 -638 -10z"/>
<path d="M3380 6393 c-8 -3 -21 -12 -28 -20 -7 -7 -21 -13 -31 -13 -10 0 -53
-10 -97 -21 -77 -21 -101 -25 -165 -28 -18 0 -28 -5 -24 -11 4 -6 11 -8 16 -5
5 4 9 1 9 -5 0 -7 -7 -10 -15 -6 -8 3 -21 -1 -29 -9 -20 -21 -29 -19 -23 5 6
22 -3 26 -20 9 -6 -6 -9 -18 -6 -25 3 -8 1 -14 -5 -14 -6 0 -12 5 -14 11 -3 8
-21 9 -63 4 l-60 -9 64 -9 c50 -7 61 -11 47 -19 -11 -6 -22 -6 -31 2 -9 7 -15
8 -20 0 -3 -5 -17 -10 -31 -10 -14 0 -24 -6 -24 -14 0 -7 -12 -16 -27 -19 -16
-3 -38 -7 -51 -10 -13 -4 -20 -2 -17 4 4 5 15 9 26 9 10 0 19 5 19 10 0 14
-23 12 -56 -5 -16 -8 -42 -15 -57 -15 -15 0 -43 -6 -62 -14 -29 -13 -33 -13
-28 0 3 8 13 14 22 14 9 1 31 9 50 19 46 25 23 36 -34 16 -57 -19 -80 -19 -99
0 -13 13 -18 13 -48 -3 -18 -9 -36 -21 -39 -26 -4 -5 -21 -6 -38 -3 -32 7 -53
-9 -26 -19 12 -5 13 -9 4 -20 -17 -20 -76 -47 -88 -40 -5 4 -12 2 -15 -3 -3
-5 4 -12 17 -16 21 -8 21 -8 -5 -12 -16 -2 -28 -9 -28 -15 0 -5 7 -8 15 -4 8
3 15 0 15 -7 0 -15 -44 -77 -62 -89 -10 -6 -9 -8 2 -8 12 -1 12 -3 -2 -11 -11
-6 -15 -16 -11 -26 5 -12 2 -15 -10 -10 -14 5 -17 0 -17 -23 0 -17 -5 -30 -11
-30 -5 0 -7 -4 -4 -10 3 -5 2 -10 -4 -10 -5 0 -8 -14 -6 -32 4 -29 -24 -87
-47 -96 -13 -6 -9 -22 6 -22 11 0 10 -9 -6 -41 -11 -23 -22 -58 -25 -78 -3
-20 -9 -40 -13 -46 -15 -19 -102 -191 -117 -230 -8 -22 -14 -54 -14 -71 1 -17
-5 -46 -13 -65 -11 -26 -12 -56 -7 -121 8 -110 8 -585 -1 -616 -4 -12 -10 -27
-13 -32 -4 -6 -1 -17 5 -25 10 -12 9 -20 -5 -41 -16 -25 -16 -27 4 -48 17 -18
19 -27 11 -54 -6 -23 -4 -47 6 -83 14 -46 14 -53 -2 -77 -12 -18 -13 -27 -6
-30 18 -6 14 -43 -5 -58 -17 -12 -16 -13 4 -14 21 0 22 -3 16 -45 -3 -29 -1
-50 6 -59 9 -10 9 -20 3 -33 -8 -13 -5 -24 8 -40 10 -12 20 -19 24 -16 12 12
6 -33 -6 -46 -11 -11 -9 -12 10 -6 20 6 22 3 22 -29 0 -19 5 -38 10 -41 6 -3
10 -14 10 -24 0 -9 16 -34 35 -55 26 -29 35 -47 35 -74 0 -20 10 -55 21 -79
18 -37 22 -68 26 -181 2 -75 5 -154 6 -174 2 -29 0 -34 -11 -26 -10 8 -11 7
-6 -8 4 -10 10 -23 15 -29 4 -5 13 -35 20 -66 l13 -57 45 -5 c29 -3 51 -12 62
-26 10 -12 20 -21 24 -21 3 0 19 -10 35 -21 16 -12 35 -19 44 -16 8 3 18 2 21
-3 9 -15 63 -12 101 6 47 22 67 55 92 152 26 98 25 99 -58 187 -70 74 -116
139 -170 242 -23 43 -53 98 -67 122 -36 61 -47 123 -28 168 10 25 19 33 30 29
9 -3 24 3 34 13 11 11 22 17 25 14 11 -11 6 -23 -9 -23 -20 0 -35 -32 -35 -74
0 -44 17 -89 30 -81 8 5 8 11 0 20 -7 9 -6 16 4 24 8 7 12 19 9 27 -3 8 0 14
6 14 6 0 8 6 5 14 -4 10 1 12 19 9 28 -5 45 13 28 30 -16 16 -14 27 4 21 8 -4
13 -10 10 -15 -3 -4 4 -13 16 -20 20 -10 21 -9 15 15 -5 19 -3 26 9 26 8 0 15
-6 15 -14 0 -8 5 -18 12 -22 6 -4 8 -3 4 4 -12 20 13 23 51 5 28 -14 38 -25
37 -41 0 -15 5 -22 18 -22 11 0 34 -11 51 -24 18 -14 44 -28 60 -31 15 -4 34
-16 41 -27 8 -11 19 -17 25 -13 15 8 81 -63 81 -87 0 -12 6 -18 17 -16 13 2
19 -8 26 -39 5 -27 14 -43 23 -43 8 0 14 -5 14 -11 0 -6 7 -9 15 -5 10 4 15
-1 15 -15 0 -11 4 -18 9 -15 8 5 89 -150 105 -201 10 -31 26 -29 26 2 0 14 4
25 10 25 25 0 90 195 90 269 0 23 5 31 18 31 13 0 10 6 -13 27 -18 16 -23 23
-12 20 16 -6 18 -3 12 22 -9 42 10 101 51 163 55 80 93 116 154 145 30 14 68
35 85 47 86 61 187 100 255 98 25 -1 81 3 125 8 44 5 107 12 140 14 106 8 250
28 265 36 8 4 38 8 65 8 28 1 63 6 78 11 16 6 48 11 73 11 24 0 44 4 44 9 0 6
8 10 18 10 9 0 50 3 91 7 53 5 72 4 67 -4 -3 -6 -2 -13 4 -17 5 -3 10 0 10 7
0 9 20 14 71 15 39 1 76 7 83 12 9 7 16 7 23 0 8 -8 21 -4 46 15 18 14 41 26
49 26 9 0 21 7 28 15 7 8 21 15 31 15 11 0 28 6 39 12 15 10 22 10 31 1 9 -9
19 -8 41 3 16 8 46 14 66 12 32 -3 38 -7 48 -38 13 -38 1 -80 -22 -80 -8 0
-20 -12 -28 -27 -18 -35 -58 -71 -115 -103 -71 -40 -85 -118 -19 -105 44 8
178 76 178 89 0 6 5 4 10 -4 13 -20 13 -80 0 -117 -6 -16 -14 -59 -18 -94 -6
-57 -10 -65 -35 -77 -15 -7 -40 -15 -55 -18 -118 -20 -192 -43 -192 -62 0 -4
9 -22 21 -41 18 -30 24 -33 55 -28 22 4 50 20 72 41 20 20 40 36 45 36 4 0 5
5 2 10 -12 19 7 32 20 13 29 -42 27 -59 -11 -88 l-36 -28 6 24 7 24 -19 -22
c-11 -12 -22 -20 -25 -16 -3 3 -19 1 -34 -4 -32 -12 -96 -5 -87 8 3 5 0 9 -6
9 -6 0 -15 12 -20 26 l-10 26 -20 -25 c-27 -34 -25 -47 5 -47 13 0 43 -7 66
-16 32 -13 48 -15 75 -6 19 5 32 7 30 3 -3 -4 -1 -13 5 -21 7 -12 9 -12 9 -1
0 7 6 11 13 8 8 -3 33 12 57 34 23 21 47 39 53 39 25 0 77 25 73 35 -4 11 40
17 156 19 69 1 102 -19 137 -85 16 -32 21 -36 17 -16 -7 31 7 36 42 11 25 -17
29 -59 7 -68 -8 -3 -15 -1 -15 4 0 6 -7 10 -15 10 -18 0 -20 -16 -2 -23 9 -3
8 -8 -5 -18 -9 -8 -24 -41 -33 -73 -59 -208 -215 -370 -388 -406 -81 -16 -146
0 -186 46 -54 61 -66 167 -31 269 23 67 23 65 12 65 -9 0 -37 -70 -34 -82 1
-5 -3 -8 -9 -8 -6 0 -9 -6 -6 -12 2 -7 0 -26 -5 -43 -10 -36 7 -128 30 -165
18 -27 40 -49 69 -66 17 -10 16 -16 -14 -105 -17 -51 -29 -97 -27 -101 3 -4
22 -8 42 -8 20 0 49 -6 64 -14 19 -10 45 -13 87 -9 38 4 72 1 93 -7 43 -17
103 -74 135 -127 22 -38 29 -43 62 -43 50 0 94 -31 149 -103 28 -37 53 -59 70
-63 118 -24 191 -118 207 -264 13 -121 64 -455 75 -490 26 -83 39 -674 19
-800 -14 -84 -28 -98 -124 -127 -65 -20 -383 -98 -448 -110 -17 -3 -33 -15
-39 -29 -6 -13 -18 -26 -27 -28 -27 -9 -364 -87 -411 -96 -25 -4 -108 -25
-185 -45 -77 -20 -158 -40 -180 -44 -60 -12 -272 -60 -339 -76 -61 -15 -88
-10 -100 20 -9 23 -20 18 -33 -15 -6 -16 -17 -32 -25 -34 -7 -2 -98 -25 -203
-50 -104 -25 -230 -57 -280 -70 l-90 -25 1648 0 1647 -1 0 1059 0 1059 -132
-40 c-73 -21 -146 -43 -163 -47 -58 -17 -200 -59 -217 -66 -15 -6 -18 -2 -18
22 0 29 24 73 40 73 13 0 48 16 115 53 l60 34 -3 43 c-1 24 -7 49 -11 54 -13
17 -30 130 -36 245 -3 57 -10 126 -16 154 -5 27 -9 64 -9 82 0 18 -6 38 -14
44 -7 6 -19 33 -26 59 -7 26 -21 63 -30 82 -10 19 -27 82 -39 140 -12 58 -29
133 -37 168 -12 50 -18 192 -12 287 0 6 -4 53 -10 105 -12 101 -26 700 -27
1165 -1 263 -2 283 -22 326 -12 25 -26 79 -32 120 -7 41 -23 97 -36 126 -28
58 -28 82 -1 108 11 11 15 26 12 39 -3 12 -6 30 -6 42 0 12 -8 30 -17 41 -15
16 -22 17 -41 7 -45 -22 -73 -94 -53 -133 16 -29 16 -131 0 -131 -5 0 -9 -6
-9 -13 0 -8 -11 -19 -25 -25 -14 -7 -28 -20 -32 -29 -9 -24 -43 -54 -54 -47
-5 3 -9 -4 -9 -14 0 -11 -7 -25 -14 -32 -11 -8 -12 -18 -6 -36 8 -19 6 -26 -5
-30 -9 -4 -14 -11 -13 -18 3 -15 -42 -86 -54 -86 -13 0 -2 -78 13 -97 6 -7 15
-27 19 -45 5 -18 14 -51 20 -73 13 -50 40 -345 40 -446 0 -42 7 -120 15 -175
38 -248 40 -328 8 -389 -42 -80 -90 -106 -173 -92 -46 8 -63 17 -103 55 -79
77 -88 117 -82 340 6 236 6 292 1 422 -3 57 -2 108 0 112 3 4 6 45 7 90 2 55
9 95 20 119 10 20 17 40 16 45 -4 16 13 44 22 38 21 -12 7 9 -23 37 -18 17
-45 33 -61 36 -15 3 -30 10 -33 14 -3 5 -17 9 -32 10 -15 0 -21 3 -14 6 6 2
12 14 12 25 0 18 -1 18 -16 3 -15 -15 -17 -15 -28 3 -6 10 -21 34 -33 52 -33
50 -79 271 -66 319 5 21 29 35 44 26 5 -4 6 2 2 11 -5 13 -3 16 10 11 11 -4
17 -1 17 7 0 8 -9 16 -19 19 -17 4 -19 10 -11 38 11 44 6 105 -8 102 -14 -3
-45 54 -37 67 3 5 1 28 -5 52 -5 24 -15 75 -21 115 -8 55 -14 70 -25 66 -9 -3
-14 2 -14 15 0 11 -11 27 -24 35 -21 14 -26 14 -46 0 -18 -13 -27 -14 -41 -4
-12 7 -19 7 -19 1 0 -5 5 -10 11 -10 8 0 8 -5 -1 -15 -7 -8 -21 -15 -32 -15
-14 0 -18 -5 -14 -16 3 -9 6 -20 6 -25 0 -6 5 -7 10 -4 6 3 10 -3 10 -14 0
-26 -23 -18 -38 12 -10 20 -11 20 -11 -10 -1 -18 -6 -33 -12 -33 -10 0 0 -9
50 -47 7 -5 -2 -10 -29 -17 -14 -3 -19 -3 -12 0 22 10 13 23 -23 30 -19 3 -32
10 -29 15 3 5 0 9 -5 9 -6 0 -11 6 -11 14 0 8 -6 16 -12 19 -8 3 -3 9 12 15
l25 11 -27 0 c-15 1 -30 -4 -34 -11 -5 -8 -11 -6 -20 6 -7 10 -17 15 -22 12
-5 -3 -15 1 -22 9 -7 8 -16 13 -20 10 -4 -3 -19 4 -33 15 -14 11 -28 20 -32
20 -3 0 -13 6 -20 13 -28 25 -40 33 -50 35 -26 6 -75 27 -75 32 0 3 -20 14
-45 24 -25 11 -45 25 -45 33 0 7 -9 13 -19 13 -11 0 -21 5 -23 12 -2 6 -19 11
-36 11 -18 0 -27 4 -21 8 7 4 -19 10 -57 14 -38 4 -94 13 -124 21 -30 8 -71
14 -92 14 -33 0 -73 9 -188 42 -19 5 -53 10 -74 9 -24 0 -56 10 -81 24 -22 14
-70 30 -105 38 -41 8 -64 17 -62 25 1 7 -6 13 -15 13 -39 3 -44 5 -53 19 -5 8
-10 12 -10 8 0 -5 -9 1 -21 13 -11 11 -23 18 -27 15 -3 -4 3 -13 14 -22 18
-14 17 -15 -16 -10 -19 3 -46 9 -60 12 -14 3 -40 6 -57 7 -18 0 -33 4 -33 7 0
4 -12 10 -27 14 -16 3 -37 8 -48 10 -11 3 -27 2 -35 -1z"/>
<path d="M4158 3736 c-60 -39 -72 -64 -18 -36 22 11 40 25 40 30 0 6 7 10 15
10 8 0 15 -3 15 -6 0 -15 -25 -51 -48 -71 -28 -23 -23 -44 6 -27 9 6 51 11 92
13 44 1 84 8 97 17 12 8 29 14 38 14 9 0 30 7 46 16 18 9 38 12 47 8 25 -11
81 -7 98 6 11 10 14 9 14 -4 0 -9 6 -16 14 -16 7 0 28 -3 45 -6 28 -6 31 -4
25 12 -14 38 -26 46 -41 27 -14 -17 -14 -17 -9 0 8 26 -4 41 -17 22 -11 -14
-17 -14 -64 0 -29 9 -63 13 -77 9 -13 -3 -26 -2 -29 3 -6 10 -111 8 -127 -2
-6 -4 -10 -2 -10 3 0 5 -13 9 -30 9 -16 0 -30 -4 -30 -8 0 -8 -19 -7 -35 2 -5
3 -31 -8 -57 -25z"/>
<path d="M4270 3394 c-47 -8 -132 -18 -189 -23 -109 -10 -164 -31 -78 -31 42
0 47 -2 48 -22 0 -13 3 -17 6 -10 8 21 21 13 26 -15 4 -27 4 -27 12 -5 4 12
11 22 15 22 4 0 10 9 13 19 6 26 77 26 77 1 0 -9 9 -25 20 -35 18 -17 26 -17
63 -8 55 15 59 8 11 -14 -22 -10 -42 -22 -45 -26 -3 -5 -23 -4 -45 2 -46 13
-55 8 -15 -8 21 -9 27 -18 24 -32 -7 -25 14 -24 47 1 14 11 31 20 38 20 7 0
12 8 10 17 -3 14 6 17 52 19 30 0 48 -1 40 -4 -8 -3 -19 -9 -25 -14 -5 -5 -19
-16 -30 -24 -19 -15 -19 -15 5 -8 14 4 38 21 55 38 16 17 38 29 47 28 10 -2
28 4 40 12 34 24 115 20 167 -6 41 -22 53 -37 80 -98 10 -24 10 -24 4 5 -17
85 -73 123 -200 132 -68 5 -73 8 -73 29 0 55 -43 64 -200 38z"/>
<path d="M5304 3266 c-3 -8 -14 -18 -25 -21 -21 -7 -60 -122 -65 -192 -4 -62
16 -73 64 -35 21 17 50 36 65 43 15 7 27 16 27 21 0 12 -12 9 -34 -7 -22 -16
-76 -20 -76 -6 0 5 7 12 16 15 17 7 74 125 74 155 0 27 -38 48 -46 27z"/>
<path d="M4571 2516 c-81 -11 -83 -12 -58 -25 27 -14 36 -31 17 -31 -6 0 -8
-11 -4 -26 5 -20 2 -26 -15 -31 -20 -5 -30 -23 -13 -23 4 0 39 16 77 36 64 33
115 52 188 68 38 9 34 23 -10 29 -21 3 -51 8 -68 10 -16 3 -68 0 -114 -7z"/>
<path d="M4304 2233 c-32 -27 -78 -68 -103 -92 l-45 -43 24 -21 c16 -13 21
-21 13 -24 -16 -6 -17 -43 -2 -43 5 0 7 5 3 12 -5 8 -2 9 12 3 10 -4 51 -15
90 -24 84 -19 107 -37 130 -100 8 -25 20 -54 25 -63 6 -12 6 -18 -1 -18 -6 0
-10 -12 -9 -27 1 -16 -1 -52 -5 -80 -4 -29 -5 -53 -2 -53 3 0 15 20 27 44 22
47 47 61 76 41 10 -7 36 -18 58 -25 22 -7 46 -17 53 -23 10 -8 16 -7 23 4 8
12 10 12 20 -1 9 -13 10 -13 6 1 -3 10 -11 35 -18 57 l-12 40 -58 -5 c-78 -7
-100 8 -147 105 -59 119 -76 191 -68 288 6 70 5 82 -9 88 -9 3 -18 6 -20 6 -1
0 -29 -21 -61 -47z"/>
<path d="M3652 1748 c-49 -64 -110 -129 -137 -145 -43 -26 -131 -65 -160 -70
-16 -3 -34 -9 -40 -13 -5 -4 -32 -13 -60 -19 -27 -7 -65 -21 -83 -32 -18 -10
-42 -19 -52 -19 -11 0 -27 -11 -36 -25 -9 -14 -23 -25 -30 -25 -8 0 -14 -7
-14 -16 0 -9 -6 -22 -14 -28 -9 -7 -12 -25 -8 -55 l4 -44 62 6 c61 6 164 45
185 71 7 8 24 17 39 21 15 4 29 10 32 13 3 4 28 18 55 32 57 28 136 106 201
196 46 64 110 191 101 200 -3 3 -23 -18 -45 -48z"/>
<path d="M5574 1758 c-50 -32 -114 -97 -114 -115 0 -13 144 -6 148 7 2 5 8 10
13 10 13 0 52 41 45 47 -7 7 38 43 53 43 23 0 10 18 -16 23 -16 3 -39 8 -53
12 -18 4 -39 -4 -76 -27z"/>
<path d="M1085 728 c-55 -16 -152 -46 -215 -65 -106 -32 -287 -87 -435 -133
-33 -10 -121 -35 -195 -55 -74 -20 -159 -43 -188 -51 l-52 -15 0 -205 0 -204
735 0 735 0 1 43 c1 23 3 51 4 62 10 87 27 488 21 517 -9 49 -49 79 -149 112
-98 33 -138 32 -262 -6z"/>
</g>
</svg>
